<?xml version="1.0" encoding="utf-8" ?>
<svg xmlns="http://www.w3.org/2000/svg" xmlns:xlink="http://www.w3.org/1999/xlink" width="10" height="10">
	<defs>
		<clipPath id="clip_0">
			<rect x="-1275.8555" y="-100.4165" width="1339.2" height="837" clip-rule="evenodd"/>
		</clipPath>
	</defs>
	<g clip-path="url(#clip_0)">
		<path fill="rgb(48,65,82)" stroke="none" transform="matrix(0.634259 -0.680159 0.680159 0.634259 0.104492 5.80469)" d="M1 0.5Q1 0.448641 0.990698 0.399281Q0.981396 0.349921 0.963094 0.304167Q0.944792 0.258413 0.918087 0.217755Q0.891382 0.177096 0.857143 0.142857Q0.822904 0.108618 0.782245 0.0819128Q0.741587 0.0552077 0.695833 0.0369061Q0.650079 0.0186045 0.600719 0.00930224Q0.551359 0 0.5 0Q0.448641 0 0.399281 0.00930224Q0.349921 0.0186045 0.304167 0.0369061Q0.258413 0.0552077 0.217755 0.0819128Q0.177096 0.108618 0.142857 0.142857Q0.108618 0.177096 0.0819128 0.217755Q0.0552077 0.258413 0.0369061 0.304167Q0.0186045 0.349921 0.00930224 0.399281Q0 0.448641 0 0.5L0 4.5Q0 4.55136 0.00930224 4.60072Q0.0186045 4.65008 0.0369061 4.69583Q0.0552077 4.74159 0.0819128 4.78225Q0.108618 4.8229 0.142857 4.85714Q0.177096 4.89138 0.217755 4.91809Q0.258413 4.94479 0.304167 4.96309Q0.349921 4.9814 0.399281 4.9907Q0.448641 5 0.5 5Q0.636364 5 0.75 4.9375Q0.863636 5 1 5L8 5Q8.05136 5 8.10072 4.9907Q8.15008 4.9814 8.19583 4.96309Q8.24159 4.94479 8.28225 4.91809Q8.32291 4.89138 8.35714 4.85714Q8.39138 4.8229 8.41809 4.78225Q8.44479 4.74159 8.46309 4.69583Q8.4814 4.65008 8.4907 4.60072Q8.5 4.55136 8.5 4.5Q8.5 4.44864 8.4907 4.39928Q8.4814 4.34992 8.46309 4.30417Q8.44479 4.25841 8.41809 4.21776Q8.39138 4.1771 8.35714 4.14286Q8.32291 4.10862 8.28225 4.08191Q8.24159 4.05521 8.19583 4.03691Q8.15008 4.0186 8.10072 4.0093Q8.05136 4 8 4L1 4L1 0.5ZM1 4Q0.948641 4 0.899281 4.0093Q0.849921 4.0186 0.804167 4.03691Q0.758413 4.05521 0.717755 4.08191Q0.677096 4.10862 0.642857 4.14286Q0.608618 4.1771 0.581913 4.21776Q0.555208 4.25841 0.536906 4.30417Q0.518604 4.34992 0.509302 4.39928Q0.5 4.44864 0.5 4.5Q0.5 4.56933 0.516836 4.6345Q0.533672 4.69968 0.566352 4.75687Q0.599032 4.81406 0.645631 4.85989Q0.692229 4.90573 0.75 4.9375Q0.807771 4.90573 0.854369 4.85989Q0.900968 4.81406 0.933648 4.75687Q0.966328 4.69968 0.983164 4.6345Q1 4.56933 1 4.5L1 4Z" fill-rule="evenodd"/>
	</g>
	<defs>
		<clipPath id="clip_1">
			<rect x="-1275.8555" y="-100.4165" width="1339.2" height="837" clip-rule="evenodd"/>
		</clipPath>
	</defs>
	<g clip-path="url(#clip_1)">
		<path fill="none" stroke="rgb(48,65,82)" stroke-width="0.68199837" stroke-miterlimit="4" transform="matrix(0.634259 -0.680159 0.680159 0.634259 0.104492 5.80469)" d="M1 0.5Q1 0.448641 0.990698 0.399281Q0.981396 0.349921 0.963094 0.304167Q0.944792 0.258413 0.918087 0.217755Q0.891382 0.177096 0.857143 0.142857Q0.822904 0.108618 0.782245 0.0819128Q0.741587 0.0552077 0.695833 0.0369061Q0.650079 0.0186045 0.600719 0.00930224Q0.551359 0 0.5 0Q0.448641 0 0.399281 0.00930224Q0.349921 0.0186045 0.304167 0.0369061Q0.258413 0.0552077 0.217755 0.0819128Q0.177096 0.108618 0.142857 0.142857Q0.108618 0.177096 0.0819128 0.217755Q0.0552077 0.258413 0.0369061 0.304167Q0.0186045 0.349921 0.00930224 0.399281Q0 0.448641 0 0.5L0 4.5Q0 4.55136 0.00930224 4.60072Q0.0186045 4.65008 0.0369061 4.69583Q0.0552077 4.74159 0.0819128 4.78225Q0.108618 4.8229 0.142857 4.85714Q0.177096 4.89138 0.217755 4.91809Q0.258413 4.94479 0.304167 4.96309Q0.349921 4.9814 0.399281 4.9907Q0.448641 5 0.5 5Q0.636364 5 0.75 4.9375Q0.863636 5 1 5L8 5Q8.05136 5 8.10072 4.9907Q8.15008 4.9814 8.19583 4.96309Q8.24159 4.94479 8.28225 4.91809Q8.32291 4.89138 8.35714 4.85714Q8.39138 4.8229 8.41809 4.78225Q8.44479 4.74159 8.46309 4.69583Q8.4814 4.65008 8.4907 4.60072Q8.5 4.55136 8.5 4.5Q8.5 4.44864 8.4907 4.39928Q8.4814 4.34992 8.46309 4.30417Q8.44479 4.25841 8.41809 4.21776Q8.39138 4.1771 8.35714 4.14286Q8.32291 4.10862 8.28225 4.08191Q8.24159 4.05521 8.19583 4.03691Q8.15008 4.0186 8.10072 4.0093Q8.05136 4 8 4L1 4L1 0.5ZM1 4Q0.948641 4 0.899281 4.0093Q0.849921 4.0186 0.804167 4.03691Q0.758413 4.05521 0.717755 4.08191Q0.677096 4.10862 0.642857 4.14286Q0.608618 4.1771 0.581913 4.21776Q0.555208 4.25841 0.536906 4.30417Q0.518604 4.34992 0.509302 4.39928Q0.5 4.44864 0.5 4.5Q0.5 4.56933 0.516836 4.6345Q0.533672 4.69968 0.566352 4.75687Q0.599032 4.81406 0.645631 4.85989Q0.692229 4.90573 0.75 4.9375Q0.807771 4.90573 0.854369 4.85989Q0.900968 4.81406 0.933648 4.75687Q0.966328 4.69968 0.983164 4.6345Q1 4.56933 1 4.5L1 4Z" fill-rule="evenodd"/>
	</g>
</svg>
