<?xml version="1.0" encoding="UTF-8"?>
<svg width="1440px" height="900px" viewBox="0 0 1440 900" version="1.1" xmlns="http://www.w3.org/2000/svg" xmlns:xlink="http://www.w3.org/1999/xlink" style="background: #EFF3F6;">
    <!-- Generator: Sketch 47.1 (45422) - http://www.bohemiancoding.com/sketch -->
    <title>Login Screen - General Access Copy</title>
    <desc>Created with Sketch.</desc>
    <defs></defs>
    <g id="Lonicera" stroke="none" stroke-width="1" fill="none" fill-rule="evenodd">
        <g id="Login-Screen---General-Access-Copy">
            <rect id="Rectangle" fill="#304152" x="0" y="-1" width="1440" height="901"></rect>
            <polygon id="Fill-1" fill="#0C162B" points="55.2674323 964 61.6045939 956.5 75.5463495 970.25 80.6160788 965.25 75.5463495 960.25 78.0812141 959 83.1509434 962.75 85.685808 960.25 62.8720263 942.75 65.4068909 940.25 97.0926989 965.25 103.429861 959 94.5578343 950.25 103.429861 941.5 93.290402 931.5 116.7379 908.375 134.481952 925.875 143.987695 916.5 121.173913 894 123.708778 891.5 142.720263 910.25 149.69114 903.375 126.877358 880.875 132.580804 875.25 155.394586 897.75 161.098031 892.125 131.947088 863.375 135.115669 860.25 164.266612 889 173.138638 880.25 143.987695 851.5 160.464315 835.25 175.039787 849.625 178.842084 845.875 194.051272 860.875 203.557014 851.5 176.940935 825.25 185.179245 817.125 225.73708 857.125 239.045119 844 211.161608 816.5 227.004512 800.875 251.719442 825.25 257.422888 819.625 268.829779 830.875 272.632075 827.125 254.254307 809 257.422888 805.875 276.434372 824.625 278.335521 822.75 254.254307 799 258.69032 794.625 277.068089 812.75 280.870386 809 270.730927 799 273.265792 796.5 263.126333 786.5 269.463495 780.25 301.783019 812.125 322.061936 792.125 291.009844 761.5 299.88187 759 303.684167 755.25 301.783019 753.375 309.387613 745.875 313.823626 750.25 324.596801 739.625 324.596801 727.75 329.983388 733.0625 334.736259 728.375 319.527071 713.375 312.556194 734 305.585316 727.125 301.149303 737.75 292.277276 737.75 284.672683 754 268.196062 744 254.254307 744 269.463495 705.25 261.858901 705.25 249.184578 735.25 218.766202 735.25 201.022149 781.5 147.789992 786.5 135.115669 772.75 128.778507 702.75 123.708778 696.5 128.778507 696.5 140.819114 708.375 147.789992 772.75 192.150123 772.75 206.091879 735.25 211.161608 735.25 211.161608 726.5 206.091879 726.5 206.091879 720.25 199.754717 720.25 199.754717 705.25 180.743232 705.25 180.743232 701.5 176.940935 701.5 176.940935 696.5 174.406071 696.5 174.406071 687.75 183.911813 678.375 179.4758 674 164.266612 689 153.493437 678.375 167.435193 664.625 162.99918 660.25 132.580804 690.25 127.511075 685.25 142.086546 670.875 134.481952 663.375 134.481952 647.75 130.045939 647.75 130.045939 640.25 135.115669 640.25 135.115669 631.5 117.371616 631.5 117.371616 624 123.708778 624 123.708778 615.25 131.313372 615.25 131.313372 600.25 121.173913 600.25 121.173913 592.75 185.812961 539 195.318704 548.375 171.871206 569 184.545529 581.5 220.66735 545.875 206.725595 532.125 199.121001 539.625 193.417555 534 232.707957 501.5 237.777687 507.75 244.748564 500.875 256.789171 506.5 260.591468 499 237.777687 487.75 241.579984 480.25 263.126333 490.25 268.196062 480.25 246.649713 471.5 251.719442 460.25 277.068089 471.5 282.137818 461.5 259.324036 451.5 263.126333 442.75 292.277276 454 306.219032 454 308.753897 447.75 268.196062 432.75 271.998359 424 296.079573 432.75 298.614438 426.5 274.533224 417.75 280.870386 404 303.684167 412.75 306.219032 405.25 284.672683 395.25 292.277276 382.75 312.556194 391.5 321.42822 375.25 318.893355 374 322.695652 366.5 326.497949 369 329.032814 365.25 306.219032 351.5 312.556194 341.5 331.567678 352.75 336.637408 344 316.358491 332.75 322.695652 321.5 342.974569 332.75 346.776866 314 334.102543 306.5 353.114028 281.5 363.253486 287.75 368.323216 281.5 365.788351 277.75 374.660377 266.5 394.939295 266.5 394.939295 274 406.346185 274 406.346185 270.25 410.148482 270.25 410.148482 262.75 422.822806 262.75 422.822806 266.5 434.229696 266.5 434.229696 260.25 451.973749 260.25 451.973749 255.25 491.264151 255.25 491.264151 250.25 512.8105 250.25 512.8105 251.5 521.682527 251.5 521.682527 255.25 530.554553 255.25 530.554553 265.25 533.089418 265.25 533.089418 269 540.694011 269 540.694011 287.75 547.031173 287.75 547.031173 291.5 553.368335 297.75 560.972929 285.25 564.775226 287.75 555.903199 301.5 558.438064 304 569.844955 304 569.844955 309 557.170632 329 562.240361 332.75 574.914684 311.5 586.321575 324 592.658737 324 578.716981 307.75 582.519278 302.75 604.065628 327.75 609.135357 324 582.519278 295.25 587.589007 290.25 591.391304 294 595.193601 290.25 588.85644 284 597.09475 275.875 602.164479 280.875 605.966776 277.125 580.61813 252.125 588.222724 244.625 569.844955 226.5 573.647252 222.75 604.065628 252.75 604.065628 235.25 583.78671 215.25 589.490156 209.625 613.57137 233.375 613.57137 261.5 639.553733 284 639.553733 274 623.077112 259 623.077112 231.5 616.739951 224 616.739951 189 630.681706 159 626.245693 154.625 643.35603 102.75 663.634947 76.5 663.634947 60.25 671.239541 65.25 697.855619 10.25 697.855619 -8.5 716.867104 -11 716.867104 2.75 730.80886 7.75 737.146021 5.25 737.146021 -7.25 1599 -7.25 1599 974 54 974"></polygon>
            <path d="M199.11961,-8 L188.970328,49.5159098 L158.522485,45.7648722 L158.522485,52.0166015 L186.433008,55.7676391 L185.164348,62.0193684 L150.910524,58.2683308 L150.910524,64.5200602 L185.164348,69.5214436 L182.627028,88.2766316 L148.373203,88.2766316 L139.492582,150.793925 L152.179184,150.793925 L152.179184,167.048421 L136.955262,167.048421 L126.80598,222.063639 L133.149281,222.063639 L133.149281,232.066406 L123,237.067789 L123,267.07609 L133.149281,274.578165 L140.761242,274.578165 L140.761242,288.33197 L157.253824,312.088541 L177.552387,320.840962 L205.46291,315.839579 L205.46291,309.58785 L219.418172,307.087158 L228.298793,318.340271 L239.716735,310.838195 L235.910754,307.087158 L229.567454,312.088541 L223.224153,302.085774 L273.970559,260.824361 L287.925821,275.828511 L291.731801,272.077474 L280.31386,260.824361 L284.754171,256.44815 L295.537782,267.07609 L308.224384,254.572632 L299.978092,246.445383 L306.955723,242.069173 L301.881083,238.318135 L323.448305,223.313985 L345.015528,213.311218 L432.553079,198.307068 L432.553079,208.309835 L503.598048,200.807759 L503.598048,194.55603 L530.239912,192.055338 C530.239912,192.055338 551.807134,187.053955 559.419095,152.044271 C567.031056,117.034586 578.448998,107.03182 579.717658,97.0290526 C580.986318,87.0262857 582.254978,62.0193684 584.792299,57.017985 C587.329619,52.0166015 598.74756,8.25449624 597.4789,-2.99861654 C597.4789,-2.99861654 198.732668,-7.61864451 199.11961,-8" id="Fill-2" fill="#0C162B"></path>
            <path d="M-24.9847026,0.751037594 L21.9557234,8.25311278 L18.1497429,19.5062256 L-24.9847026,14.5048421 L-24.9847026,40.7621053 L1.65716078,40.7621053 L1.65716078,65.7690226 L-11.0294408,65.7690226 L-4.05180994,72.6459248 L20.6870632,72.6459248 L20.6870632,83.2738647 L-9.76078067,83.2738647 L-9.76078067,102.029053 L15.6124226,102.029053 L15.6124226,110.781474 L-5.95480019,110.781474 L-5.95480019,117.033203 L-11.0294408,117.033203 L-16.1040815,145.791158 L-3.41747986,145.791158 L-3.41747986,155.793925 L-9.76078067,155.793925 L-9.76078067,149.542195 L-16.1040815,149.542195 L-17.3727416,172.048421 C-17.3727416,172.048421 -16.1040815,182.051188 -38.9399644,180.800842 C-38.9399644,180.800842 -49.0892457,173.298767 -64.3131676,182.051188 C-64.3131676,182.051188 -68.1191481,187.052571 -96.0296716,184.55188 C-96.0296716,184.55188 -141.701437,177.049805 -153.119379,174.549113 L-162,173.298767 L-162,-3 L-27.5220229,-3 L-24.9847026,0.751037594 Z" id="Fill-4" fill="#0C162B"></path>
            <path d="M608,354 L641,563" id="Stroke-9" stroke="#304152" stroke-width="2"></path>
            <polyline id="Stroke-10" stroke="#304152" stroke-width="2" points="639 354 705.25 803.824561 724 995"></polyline>
            <polyline id="Stroke-12" stroke="#304152" stroke-width="2" points="631 239.738411 669.225806 231 741.854839 317.135762 789 620.483444 743.129032 787.761589 759.693548 985"></polyline>
            <polyline id="Stroke-13" stroke="#304152" stroke-width="2" points="792 983 779 798.996552 789.4 620"></polyline>
            <polyline id="Stroke-14" stroke="#304152" stroke-width="2" points="820.538462 583 807 798.716049 823 987"></polyline>
            <polyline id="Stroke-15" stroke="#304152" stroke-width="2" points="850.142857 585 836 794.73913 854 987"></polyline>
            <polyline id="Stroke-16" stroke="#304152" stroke-width="2" points="1016.34783 985 1002 802.268499 1015.04348 615.782241 1032 590.750529 1002 393"></polyline>
            <polyline id="Stroke-17" stroke="#304152" stroke-width="2" points="1114.84615 724 1124 792.815166 1118.76923 839.109005 1073 988"></polyline>
            <polyline id="Stroke-18" stroke="#304152" stroke-width="2" points="1099 601 1091 739.568627 1091 757.045752 1096.33333 792"></polyline>
            <g id="Group-265" transform="translate(-165.000000, -18.000000)" stroke="#304152" stroke-width="2">
                <path d="M1764.4006,469.695179 L1508.46371,631.057823 L1494.29522,639.990831 L1167.12533,821.556049 L1026.36619,812.790831 C1026.36619,812.790831 870.389847,822.808223 864.049346,824.060397 C857.708844,825.31257 851.368342,829.069092 852.636442,850.356049 L867.853647,998.11257" id="Stroke-19"></path>
                <polyline id="Stroke-21" points="1238.51545 780.711263 1358.60836 924.234184 1435.96248 910.460271 1713.67646 751.434184 1744.11087 745.173315 1725.08936 638.738532"></polyline>
                <path d="M1282.14115,757.516744 L1764.40098,666.28711" id="Stroke-23"></path>
                <path d="M1282.14115,792.577614 L1764.40098,701.347979" id="Stroke-25"></path>
                <path d="M1364.94899,559.851701 C1364.94899,562.356049 1373.82569,627.469092 1373.82569,627.469092 L1368.75329,697.590831 L1394.09754,832.959597 L1424.5497,995.608223" id="Stroke-27"></path>
                <path d="M1296.1236,851.402866 L1394.11479,832.825614" id="Stroke-29"></path>
                <polyline id="Stroke-31" points="1226.72605 753.938657 1224.5335 788.99577 1386.50669 974.321266"></polyline>
                <path d="M1167.48446,824.89447 L1282.52272,960.547478" id="Stroke-33"></path>
                <polyline id="Stroke-35" points="1345.34175 907.183207 1276.18209 965.555798 1035.24302 984.338407"></polyline>
                <polyline id="Stroke-37" stroke-linejoin="round" points="837.419238 985.590831 885.596907 960.753962 908.432858 960.753962 915.303426 967.536988 1262.5651 940.319736 1373.82569 940.319736 1449.91171 927.990831 1480.34612 902.947353 1523.46153 894.182136 1551.35974 897.938657 1766.9368 776.477788"></polyline>
                <path d="M1581.79415,984.338657 L1760.5963,882.91257" id="Stroke-39"></path>
                <polyline id="Stroke-41" points="861.547257 944.737405 883.361119 933.691979 1234.60082 905.526831"></polyline>
                <path d="M486.155439,453.416918 L560.97336,482.216918 L719.485905,559.851701 L950.952263,622.69831 L1482.88232,662.529962 C1482.88232,662.529962 1570.38125,661.277788 1600.81565,646.251701 L1765.6687,582.390831" id="Stroke-45"></path>
                <path d="M805.716729,582.390831 L782.890923,673.799527" id="Stroke-47"></path>
                <polyline id="Stroke-49" points="639.595582 910.460397 775.28232 702.599527 540.683754 582.390831 520.394148 572.37344 450.648629 548.582136"></polyline>
                <polyline id="Stroke-51" points="511.517446 807.782136 662.421389 927.990831 671.298091 993.103875"></polyline>
                <polyline id="Stroke-53" stroke-linejoin="round" points="874.256158 856.133955 787.963197 698.843381 806.984703 697.591207 926.59066 734.07079 1255.89223 757.695555 1368.75316 697.591207 1401.72377 665.034685 1401.72377 628.721642 1442.30298 586.147729"></polyline>
                <polyline id="Stroke-55" points="719.485905 988.095179 695.391998 935.503875 605.356872 862.877788 590.139668 826.564744 522.930349 770.216918"></polyline>
                <path d="M1263.50096,618.703875 L1239.40705,465.938657" id="Stroke-57"></path>
                <path d="M945.538489,587.059687 L1326.90572,529.799026" id="Stroke-59"></path>
                <path d="M799.365195,549.63872 L1259.69704,482.216668" id="Stroke-61"></path>
                <polyline id="Stroke-63" points="1216.58125 422.11257 1202.63214 442.147353 684.771657 518.453579 626.122016 626.261997 532.282589 777.727457"></polyline>
                <polyline id="Stroke-65" points="664.921068 474.796911 790.341266 481.924285 821.020418 479.252146 1182.34279 425.869468"></polyline>
                <polyline id="Stroke-67" points="645.972732 427.574929 782.221239 434.702303 813.80201 431.138616 1129.08219 383.295555"></polyline>
                <path d="M1068.2135,340.721266 L1107.95323,608.443562" id="Stroke-69"></path>
                <polyline id="Stroke-71" points="1101.18411 363.260397 1135.92499 608.443562 1125.27802 621.208223 1123.29344 636.062762"></polyline>
                <path d="M323.838593,244.303875 L333.983396,256.825614 L322.570492,328.199527 L349.2006,417.103875 L425.286622,584.895179 L512.785546,750.182136 C536.879453,783.990831 503.908844,815.295179 503.908844,815.295179 L363.149704,990.599527" id="Stroke-73"></path>
                <polyline id="Stroke-75" points="399.924614 986.843005 553.035052 793.765301 649.581872 639.626449 699.20898 543.401892"></polyline>
                <polyline id="Stroke-77" points="432.895224 991.851701 575.593289 811.584988 676.650743 652.992153 717.255316 576.366623"></polyline>
                <polyline id="Stroke-79" points="751.542594 635.171715 725.375343 678.83001 598.150638 875.734358"></polyline>
                <polyline id="Stroke-81" points="709.134401 805.347534 503.908844 675.051325 466.413652 662.79129"></polyline>
                <path d="M682.967404,509.544737 L563.509814,452.16512" id="Stroke-83"></path>
                <polyline id="Stroke-85" points="489.874397 707.340508 522.929969 621.208473 540.683374 582.391082 606.27206 472.123395 615.501295 346.982386 675.102012 348.23456 673.833911 397.069343"></polyline>
                <path d="M574.922464,328.199527 C574.922464,328.199527 555.900958,367.016918 576.190564,424.616918 L478.143581,684.17504" id="Stroke-87"></path>
                <path d="M522.930349,621.208223 L622.513002,682.393197" id="Stroke-89"></path>
                <path d="M522.296299,340.095179 C522.296299,340.095179 486.155439,428.37344 483.619238,437.138657 C481.083037,445.903875 484.887338,457.17344 483.619238,460.929962 C482.351138,464.686483 432.126755,597.751249 432.126755,597.751249" id="Stroke-91"></path>
                <path d="M442.051796,616.461231 C442.051796,616.461231 493.76366,484.721266 493.76366,479.71257 C493.76366,474.703875 483.618858,437.138657 483.618858,437.138657" id="Stroke-93"></path>
                <polyline id="Stroke-95" points="465.865833 220.51257 592.675869 346.982136 588.224837 463.213927 572.885895 489.942831"></polyline>
                <polyline id="Stroke-97" points="590.139668 826.564744 713.145403 922.982136 725.826406 999.364744"></polyline>
                <polyline id="Stroke-99" points="677.553884 849.00608 739.775764 891.677663 763.869671 1006.87766"></polyline>
                <path d="M786.695224,697.590831 C787.963324,678.808223 787.963324,672.547353 776.550421,673.799527 C765.137518,675.051701 776.550421,702.599527 776.550421,702.599527" id="Stroke-105"></path>
                <path d="M776.550421,701.347353 C776.550421,701.347353 782.587847,702.40544 786.695224,698.843005" id="Stroke-107"></path>
                <polyline id="Stroke-111" points="501.372643 63.9908313 871.657948 210.495179 910.969059 229.277788"></polyline>
                <path d="M566.082917,394.465697 L673.834672,397.068967 L681.443274,392.060271 C681.443274,392.060271 810.789511,399.573315 822.202414,398.321141 C833.615317,397.068967 857.709224,398.321141 861.513525,348.234184 L927.454744,187.955923 L974.374457,132.860271 L1106.25689,30.1820104 L1164.58951,7.64288" id="Stroke-113"></path>
                <polyline id="Stroke-115" points="865.317446 249.31257 945.207768 344.477788 985.78698 599.921266"></polyline>
                <path d="M822.202034,398.321266 L1092.30741,358.251701" id="Stroke-117"></path>
                <path d="M834.883037,248.060397 C834.883037,248.060397 936.331066,251.816918 946.475869,254.321266 C956.620672,256.825614 1482.88232,646.251701 1482.88232,646.251701 L1585.59845,628.721266 L1759.3282,559.851701" id="Stroke-119"></path>
                <polyline id="Stroke-121" points="1129.08232 383.295179 1438.49881 340.721266 1764.4006 310.669092"></polyline>
                <path d="M1182.34254,425.869092 L1312.95687,260.582136" id="Stroke-123"></path>
                <path d="M1238.13895,249.31257 L1479.07802,433.382136" id="Stroke-125"></path>
                <path d="M1169.66153,295.643005 L1422.0135,482.216918" id="Stroke-127"></path>
                <path d="M1259.69666,482.216918 L1446.10741,244.303875" id="Stroke-129"></path>
                <path d="M1326.90598,529.799527 L1428.07122,395.641614" id="Stroke-131"></path>
                <path d="M1364.94899,559.851701 L1458.78841,438.390831 C1458.78841,438.390831 1505.70813,425.869092 1514.58483,420.860397 C1523.46153,415.851701 1555.16404,373.277788 1555.16404,373.277788 L1600.81565,360.756049 C1600.81565,360.756049 1605.88806,384.547353 1617.30096,390.808223 C1628.71386,397.069092 1626.17766,412.095179 1633.78626,419.608223 C1641.39487,427.121266 1670.56117,457.17344 1679.43788,459.677788 C1688.31458,462.182136 1695.92318,454.669092 1702.26368,462.182136 C1708.60418,469.695179 1723.33951,493.21977 1723.33951,493.21977" id="Stroke-133" stroke-linejoin="round"></path>
                <path d="M1070.89465,55.8816278 L1075.82249,100.30375 C1075.82249,100.30375 1054.26478,127.851576 1063.14148,155.399402 C1072.01818,182.947228 1077.09059,189.208097 1078.35869,201.729837 C1079.62679,214.251576 1080.89489,263.086358 1085.96729,273.10375 C1091.03969,283.121141 1104.98879,293.138532 1108.7931,306.912445 C1112.5974,320.686358 1126.5465,358.251576 1126.5465,358.251576 L1477.84454,609.485245 L1508.24471,631.225489 L1551.36012,842.84288 L1642.66335,998.112445" id="Stroke-135"></path>
                <path d="M623.231635,363.899381 C623.231635,363.899381 812.05685,379.539033 823.469754,377.034685 C834.882657,374.530337 912.236779,354.495555 927.453983,355.747729 C942.671187,356.999903 1057.79695,334.508355 1057.79695,334.508355 L1110.18344,319.225572 L1219.11707,270.599903 L1286.32638,190.460772 C1286.32638,190.460772 1304.07979,177.939033 1323.10129,169.173816 C1342.1228,160.408598 1372.55721,125.347729 1392.84681,109.069468 C1413.13642,92.791207 1527.26545,8.89555478 1527.26545,8.89555478" id="Stroke-137"></path>
                <path d="M1261.38957,220.471624 C1261.38957,220.471624 1525.99773,435.886859 1536.14254,440.895555 C1546.28734,445.90425 1579.25795,462.182511 1593.20705,462.182511 C1607.15616,462.182511 1654.07587,439.643381 1671.82927,440.895555 C1689.58268,442.147729 1702.26368,442.147729 1706.06798,430.878163 C1709.87228,419.608598 1714.94469,425.869468 1720.01709,417.10425 C1725.08949,408.339033 1750.4515,372.02599 1765.6687,375.782511" id="Stroke-139"></path>
                <path d="M512.506311,356.84551 C512.506311,356.84551 528.002497,330.703875 545.755902,325.695179 C563.509307,320.686483 606.624719,321.938657 625.646225,338.216918 C644.66773,354.495179 668.761637,389.556049 673.834038,397.069092 C678.90644,404.582136 684.572312,423.43111 688.713928,430.910344 C692.855544,438.390831 697.047883,502.624849 697.047883,502.624849" id="Stroke-141"></path>
                <polyline id="Stroke-143" points="652.996106 524.962129 673.834799 493.486233 800.266941 556.766094 946.440869 596.860703 1448.64412 633.729711 1477.89919 646.754824"></polyline>
                <polyline id="Stroke-145" points="978.028615 347.440682 978.178251 265.591082 965.497247 160.408473"></polyline>
                <path d="M831.078736,115.329962 C831.078736,115.329962 883.070851,160.408223 916.04146,160.408223 C949.01207,160.408223 1040.3153,154.147353 1040.3153,154.147353 L1420.88363,175.387979 L1623.64146,186.703875 L1768.2049,167.921266" id="Stroke-147"></path>
                <path d="M1420.7454,175.43431 L1479.26697,336.859562" id="Stroke-149"></path>
                <polyline id="Stroke-151" points="1451.88449 64.1112904 1475.69562 178.148021 1520.92495 275.608473 1535.22532 330.980856"></polyline>
                <polyline id="Stroke-153" points="879.208978 213.417753 918.498531 206.364257 968.503533 201.661092 1074.466 189.904431 1372.55708 87.7821357 1476.88623 41.7735096"></polyline>
                <path d="M1306.61637,6.3908313 C1306.61637,6.3908313 1326.90598,20.1647443 1333.24648,28.9299617 C1339.58698,37.6951791 1383.97049,111.57344 1383.97049,111.57344" id="Stroke-155"></path>
                <path d="M1435.21595,174.621148 L1706.06824,7.64250435" id="Stroke-157"></path>
                <path d="M1370.92428,663.687972 L1438.78793,668.389885" id="Stroke-159"></path>
                <path d="M1516.17617,678.97088 L1747.91517,634.98201" id="Stroke-161"></path>
                <path d="M1536.14254,5.13865739 L1541.21494,41.4517009 L1608.42426,146.63431 C1608.42426,146.63431 1614.76476,159.156049 1646.46727,152.895179 C1678.16978,146.63431 1685.77838,139.121266 1706.06798,140.37344 C1726.35759,141.625614 1764.4006,136.616918 1764.4006,136.616918" id="Stroke-163" stroke-linejoin="round"></path>
                <path d="M989.591281,0.129961739 C989.591281,0.129961739 1004.80849,36.4430052 1007.34469,47.7125704 C1009.88089,58.9821357 1019.86464,81.844327 1025.65225,92.3262748 C1031.43859,102.808223 1030.17049,110.321266 1030.17049,110.321266 L1058.0687,334.460397" id="Stroke-165" stroke-linejoin="round"></path>
                <polyline id="Stroke-167" stroke-linejoin="round" points="1007.34469 47.7125704 1045.3877 95.2951791 1060.17882 188.72864"></polyline>
                <path d="M1089.94342,40.5982191 L1169.66128,295.643506" id="Stroke-169" stroke-linejoin="round"></path>
                <path d="M1541.17905,608.432167 L1690.00204,586.094637" id="Stroke-173"></path>
                <path d="M1576.89636,456.774873 C1576.89636,456.774873 1589.40237,523.538282 1595.74287,537.312195" id="Stroke-175"></path>
                <path d="M1477.80992,609.938657 C1477.80992,609.938657 1498.09952,617.451701 1533.60633,588.651701 C1569.11314,559.851701 1597.01135,533.556049 1622.37336,526.043005 C1622.37336,526.043005 1647.37776,508.883214 1660.23757,534.366205 L1705.47958,579.041266" id="Stroke-177"></path>
                <polyline id="Stroke-181" points="1545.94064 329.80569 1557.69973 319.433934 1714.94418 271.851325 1760.59579 236.790456"></polyline>
                <path d="M1600.81565,360.756049 C1600.81565,360.756049 1598.19956,356.314588 1594.0719,350.612188 C1588.56834,343.01024 1580.38148,333.169405 1572.13376,328.630275 C1557.70024,320.686483 1525.701,298.063457 1525.701,298.063457" id="Stroke-185"></path>
                <polyline id="Stroke-187" points="1594.47515 350.738657 1647.73537 340.721266 1719.76727 288.658379"></polyline>
                <path d="M1603.08936,138.176626 L1751.7196,50.2164174" id="Stroke-189"></path>
                <polyline id="Stroke-195" points="1508.24433 631.225614 1519.65723 573.625614 1593.20705 462.182136"></polyline>
                <path d="M805.716729,170.425614 L893.495904,209.890379" id="Stroke-199"></path>
                <path d="M904.628557,6.3908313 C904.628557,6.3908313 908.432858,25.17344 902.092356,33.9386574 C895.751854,42.7038748 819.665833,134.11257 819.665833,134.11257 L795.571926,205.486483 L799.376227,266.843005 L809.52103,290.63431 L881.58971,362.723214" id="Stroke-201"></path>
                <polyline id="Stroke-203" points="795.571926 205.486483 845.02784 210.495179 905.896657 238.043005"></polyline>
                <path d="M842.412383,209.605009 L837.550486,249.081043" id="Stroke-205"></path>
                <path d="M858.61972,215.473322 L855.918666,248.813704" id="Stroke-207"></path>
                <path d="M369.490206,5.13865739 L336.519596,196.721266 L312.42569,280.616918 C312.42569,280.616918 312.42569,323.190831 342.860098,329.451701 C373.294507,335.71257 418.94612,289.382136 418.94612,289.382136 C418.94612,289.382136 472.206335,231.782136 528.002751,224.269092 C583.799166,216.756049 623.110277,206.738657 654.812786,204.23431 C686.515295,201.729962 704.2687,197.97344 709.341102,169.17344 C714.413503,140.37344 722.022105,141.625614 725.826406,131.608223 C729.630708,121.590831 737.23931,90.2864835 735.971209,65.2430052 C734.703109,40.199527 762.601317,8.89517913 762.601317,8.89517913" id="Stroke-209"></path>
                <path d="M312.42569,280.616918 L337.787697,285.625614 C337.787697,285.625614 326.374794,334.460397 374.562607,303.156049 C422.750421,271.851701 476.010636,204.23431 476.010636,204.23431 L521.662249,130.356049 L560.97336,8.89517913" id="Stroke-211"></path>
                <path d="M705.536801,8.89517913 L667.49379,74.0082226" id="Stroke-213"></path>
                <polyline id="Stroke-215" points="615.501675 10.147353 595.622934 45.2645704 554.632858 154.147353 559.071209 211.121266 616.135725 346.356049 673.200242 494.11257 774.01422 675.051701"></polyline>
                <polyline id="Stroke-217" points="528.002751 144.129962 570.041546 32.3108313 586.335367 10.147353"></polyline>
                <polyline id="Stroke-219" points="333.908578 262.887763 345.396299 253.069468 446.844328 76.5129461"></polyline>
                <polyline id="Stroke-221" points="378.366908 12.6517009 489.95974 120.338657 521.662249 130.356049 528.171408 144.312779 564.138538 221.435423"></polyline>
                <polyline id="Stroke-223" points="337.787697 285.625614 515.321747 11.399527 667.680201 73.9706574 732.055315 100.318901"></polyline>
                <polyline id="Stroke-225" points="465.865833 220.51257 427.822822 184.199527 395.564885 196.823944 382.447655 189.051701"></polyline>
                <path d="M427.822822,184.199527 C427.822822,184.199527 437.967625,176.686483 448.112428,164.164744 C458.257231,151.643005 506.445044,72.7560487 506.445044,72.7560487" id="Stroke-227"></path>
                <polyline id="Stroke-229" points="448.112428 164.164744 449.380528 140.37344 496.300242 67.747353"></polyline>
                <polyline id="Stroke-231" points="545.772894 95.7842783 436.699778 36.4425043 400.15693 33.6063304"></polyline>
                <polyline id="Stroke-233" points="496.300242 67.747353 506.445044 60.2343096 528.717959 18.0623443"></polyline>
                <polyline id="Stroke-235" points="617.268266 53.6848139 577.458791 161.65977 496.578082 170.268466 436.232991 133.997997"></polyline>
                <polyline id="Stroke-237" points="639.595582 146.63431 630.71888 161.660397 634.978429 206.539562"></polyline>
                <path d="M707.786411,173.507089 L541.837725,107.442393" id="Stroke-239"></path>
                <polyline id="Stroke-241" points="360.146081 53.0373148 416.410426 62.7391583 414.200127 77.1404104 410.069924 104.060897 405.003864 113.181732 388.512218 142.878289"></polyline>
                <polyline id="Stroke-243" points="479.524035 116.510637 413.873211 77.7646191 395.565646 71.8205496"></polyline>
                <polyline id="Stroke-245" points="404.997016 112.825614 389.779811 105.31257 406.265116 10.147353"></polyline>
                <polyline id="Stroke-247" points="428.362145 104.852146 427.049661 58.2186852 436.699905 36.4433809 435.431805 7.64338087"></polyline>
                <path d="M416.409919,62.7386574 L422.750421,13.9038748" id="Stroke-249"></path>
                <path d="M349.650776,120.396758 L439.512171,174.155089" id="Stroke-251"></path>
                <path d="M342.436045,156.666977 L383.438802,180.443256" id="Stroke-253"></path>
            </g>
        </g>
    </g>
</svg>