<?xml version="1.0" encoding="utf-8"?>
<!-- Generator: Adobe Illustrator 22.0.0, SVG Export Plug-In . SVG Version: 6.00 Build 0)  -->
<svg version="1.1" id="Layer_1" xmlns="http://www.w3.org/2000/svg" xmlns:xlink="http://www.w3.org/1999/xlink" x="0px" y="0px"
	 viewBox="0 0 240.3 29.6" style="enable-background:new 0 0 240.3 29.6;" xml:space="preserve">
<style type="text/css">
	.st0{fill:#304152;}
</style>
<g>
	<path class="st0" d="M4.3,27.6V2C4.3,1.4,4.7,1,5.3,1h1C7,1,7.4,1.4,7.4,2v24h11.9c0.6,0,1,0.4,1,1v0.5c0,0.7-0.4,1.1-1,1.1h-14
		C4.7,28.6,4.3,28.2,4.3,27.6z"/>
	<path class="st0" d="M27.2,14.8c0-7.9,6.5-14.3,14.4-14.3C49.5,0.5,56,6.9,56,14.8c0,7.9-6.4,14.3-14.4,14.3
		C33.7,29.1,27.2,22.7,27.2,14.8z M52.8,14.8c0-6.4-5.1-11.5-11.2-11.5s-11.2,5-11.2,11.5s5,11.5,11.2,11.5S52.8,21.2,52.8,14.8z"/>
	<path class="st0" d="M67.8,27.6V2c0-0.7,0.4-1.1,1.1-1.1h0.5c0.5,0,1,0.2,1.3,0.6l15.8,21.4V2c0-0.7,0.4-1.1,1.1-1.1h1
		c0.6,0,1,0.4,1,1.1v25.5c0,0.7-0.4,1.1-1,1.1h-0.5c-0.6,0-1-0.2-1.3-0.6L71,6.6v21c0,0.7-0.4,1.1-1.1,1.1h-1
		C68.2,28.6,67.8,28.2,67.8,27.6z"/>
	<path class="st0" d="M102.1,27.6V2c0-0.7,0.4-1.1,1.1-1.1h1c0.7,0,1.1,0.4,1.1,1.1v25.5c0,0.7-0.4,1.1-1.1,1.1h-1
		C102.5,28.6,102.1,28.2,102.1,27.6z"/>
	<path class="st0" d="M117.1,14.8c0-7.7,5.5-14.3,14.9-14.3c3.5,0,6.1,0.9,8.2,2.4c0.6,0.4,0.7,0.8,0.4,1.4l-0.3,0.5
		c-0.3,0.6-0.8,0.8-1.5,0.4c-1.9-1.1-4.3-1.9-6.9-1.9c-7.5,0-11.8,5.3-11.8,11.5s4.3,11.5,11.8,11.5c2.6,0,5-0.8,6.9-1.9
		c0.6-0.4,1.1-0.2,1.5,0.4l0.3,0.5c0.3,0.6,0.2,1-0.2,1.3c-2.2,1.5-4.8,2.5-8.4,2.5C122.6,29.1,117.1,22.5,117.1,14.8z"/>
	<path class="st0" d="M155.5,3.5v10.2h11.3c0.7,0,1.1,0.4,1.1,1.1v0.5c0,0.7-0.4,1.1-1.1,1.1h-11.3v9.7h13.1c0.7,0,1,0.4,1,1v0.5
		c0,0.7-0.4,1.1-1,1.1h-15.1c-0.7,0-1.1-0.4-1.1-1.1V2c0-0.7,0.4-1.1,1.1-1.1h15.1c0.7,0,1,0.4,1,1.1v0.5c0,0.6-0.4,1-1,1H155.5z"/>
	<path class="st0" d="M191.4,17.8h-6.7v9.7c0,0.7-0.4,1.1-1,1.1h-1c-0.6,0-1-0.4-1-1.1V2c0-0.7,0.4-1.1,1-1.1h10.3
		c5.2,0,8.1,4,8.1,8.5c0,4.2-2.5,7.6-6.8,8.2c0.2,3.2,2.1,8.7,5.9,8.7c0.8,0,1.5-0.2,2.2-0.5c0.6-0.3,1.1-0.3,1.4,0.4l0.2,0.4
		c0.3,0.6,0.2,1.1-0.3,1.4c-1.1,0.8-2.5,1.1-3.7,1.1C193.6,29.1,191.6,21.3,191.4,17.8z M192.3,15.3c3.4,0,5.5-2.5,5.5-5.9
		s-2.1-5.9-5.5-5.9h-7.7v11.8H192.3z"/>
	<path class="st0" d="M211.4,27.4l10-25.6c0.2-0.6,0.6-0.9,1.2-0.9h1.9c0.6,0,1,0.3,1.2,0.9l10.1,25.6c0.3,0.8,0,1.2-0.8,1.2h-0.9
		c-0.6,0-1-0.3-1.3-0.9l-2-5.1h-14.4l-2,5.1c-0.2,0.6-0.6,0.9-1.2,0.9h-1C211.5,28.6,211.2,28.2,211.4,27.4z M229.9,20.1l-6.3-16.2
		l-6.2,16.2H229.9z"/>
</g>
</svg>
