<?xml version="1.0" encoding="UTF-8"?>
<svg width="40px" height="25px" viewBox="0 0 40 25" version="1.1" xmlns="http://www.w3.org/2000/svg" xmlns:xlink="http://www.w3.org/1999/xlink">
    <!-- Generator: Sketch 47.1 (45422) - http://www.bohemiancoding.com/sketch -->
    <title>user-and-chevron</title>
    <desc>Created with Sketch.</desc>
    <defs></defs>
    <g id="Lonicera" stroke="none" stroke-width="1" fill="none" fill-rule="evenodd">
        <g id="user-and-chevron" fill-rule="nonzero" fill="#304152">
            <path d="M15,8.5 C15,7.1191836 13.8807886,6 12.5002276,6 C11.1192617,6 10,7.11913332 10,8.5 C10,9.88086668 11.1192617,11 12.5002276,11 C13.8807886,11 15,9.8808164 15,8.5 Z M17,8.5 C17,10.985397 14.985347,13 12.5002276,13 C10.0147435,13 8,10.9854875 8,8.5 C8,6.01451248 10.0147435,4 12.5002276,4 C14.985347,4 17,6.01460299 17,8.5 Z" id="Stroke-5"></path>
            <path d="M37.5378351,13.5355339 C38.0878765,13.5355339 38.5355339,13.9902787 38.5355339,14.5355339 C38.5355339,15.0888718 38.0958539,15.5355339 37.5378351,15.5355339 L33.5332327,15.5355339 C33.2706476,15.5355339 33.0238605,15.4312575 32.8297002,15.2475803 C32.642108,15.06212 32.5355339,14.808952 32.5355339,14.5378351 L32.5355339,10.5332327 C32.5355339,9.9831913 32.9902787,9.53553391 33.5355339,9.53553391 C34.0888718,9.53553391 34.5355339,9.97521393 34.5355339,10.5332327 L34.5355339,13.5355339 L37.5378351,13.5355339 Z" id="Arrow" transform="translate(35.535534, 12.535534) rotate(-45.000000) translate(-35.535534, -12.535534) "></path>
            <path d="M23,12.5 C23,6.70094796 18.299052,2 12.5,2 C6.70094796,2 2,6.70094796 2,12.5 C2,18.299052 6.70094796,23 12.5,23 C18.299052,23 23,18.299052 23,12.5 Z M25,12.5 C25,19.4036215 19.4036215,25 12.5,25 C5.59637846,25 0,19.4036215 0,12.5 C0,5.59637846 5.59637846,0 12.5,0 C19.4036215,0 25,5.59637846 25,12.5 Z" id="Stroke-1"></path>
            <path d="M5.96301326,20.8596596 C6.7595903,18.0127385 9.4009572,16 12.4489573,16 C15.6325719,16 18.359222,18.1949688 19.0233391,21.2147869 L20.9766609,20.7852131 C20.1109615,16.8487764 16.5721339,14 12.4489573,14 C8.5021686,14 5.07479613,16.6116798 4.03698674,20.3207516 L5.96301326,20.8596596 Z" id="Stroke-3"></path>
        </g>
    </g>
</svg>